<svg xmlns:dc="http://purl.org/dc/elements/1.1/" xmlns:cc="http://creativecommons.org/ns#" xmlns:rdf="http://www.w3.org/1999/02/22-rdf-syntax-ns#" xmlns:svg="http://www.w3.org/2000/svg" xmlns="http://www.w3.org/2000/svg" xmlns:sodipodi="http://sodipodi.sourceforge.net/DTD/sodipodi-0.dtd" xmlns:inkscape="http://www.inkscape.org/namespaces/inkscape" width="5.0601568mm" height="15.863974mm" viewBox="0 0 17.92969 56.21093" id="svg2" version="1.1" inkscape:version="0.91 r13725" sodipodi:docname="Latin small letter I with spiritus lenis.svg">
  <defs id="defs4" fill="#1edb66"/>
  <sodipodi:namedview id="base" pagecolor="#ffffff" bordercolor="#666666" borderopacity="1.0" inkscape:pageopacity="0.0" inkscape:pageshadow="2" inkscape:zoom="5.6" inkscape:cx="-1.0338505" inkscape:cy="18.877656" inkscape:document-units="px" inkscape:current-layer="layer1" showgrid="false" inkscape:window-width="1920" inkscape:window-height="1017" inkscape:window-x="-8" inkscape:window-y="-8" inkscape:window-maximized="1" fit-margin-top="0" fit-margin-left="0" fit-margin-right="0" fit-margin-bottom="0" fill="#1edb66"/>
  <metadata id="metadata7" fill="#1edb66">
    <rdf:RDF fill="#1edb66">
      <cc:Work rdf:about="" fill="#1edb66">
        <dc:format fill="#1edb66">image/svg+xml</dc:format>
        <dc:type rdf:resource="http://purl.org/dc/dcmitype/StillImage" fill="#1edb66"/>
        <dc:title fill="#1edb66"/>
      </cc:Work>
    </rdf:RDF>
  </metadata>
  <g inkscape:label="Layer 1" inkscape:groupmode="layer" id="layer1" transform="translate(-219.64062,-444.72266)">
    <path style="font-style:normal;font-variant:normal;font-weight:normal;font-stretch:normal;font-size:medium;line-height:125%;font-family:'Times New Roman';-inkscape-font-specification:'Times New Roman, ';text-align:start;letter-spacing:0px;word-spacing:0px;text-anchor:start;fill:#1edb66;fill-opacity:1;stroke:none;stroke-width:1px;stroke-linecap:butt;stroke-linejoin:miter;stroke-opacity:1" d="m 228.19531,444.72266 c -1.14583,0 -2.10937,0.32552 -2.89062,0.97656 -0.78125,0.65104 -1.17188,1.53646 -1.17188,2.65625 0,0.88541 0.29949,1.65364 0.89844,2.30469 0.625,0.65104 1.3802,0.97656 2.26563,0.97656 0.31249,0 0.71614,-0.0781 1.21093,-0.23438 0.49479,-0.18233 0.84636,-0.27343 1.05469,-0.27343 0.75521,0 1.13281,0.63802 1.13281,1.91406 0,1.38021 -0.54687,2.53906 -1.64062,3.47656 -0.20833,0.15625 -1.38022,0.8724 -3.51563,2.14844 l 0,1.44531 c 5.39062,-2.03125 8.08594,-5.11718 8.08594,-9.25781 0,-1.58854 -0.4948,-2.99479 -1.48438,-4.21875 -1.0677,-1.27604 -2.38281,-1.91406 -3.94531,-1.91406 z m 2.22657,19.375 -10.78126,4.375 0.54688,1.40625 c 1.04167,-0.39063 1.92708,-0.58594 2.65625,-0.58594 0.67709,0 1.21094,0.16927 1.60156,0.50781 0.39063,0.3125 0.67709,0.88542 0.85938,1.71875 0.23437,1.14583 0.35156,3.65885 0.35156,7.53906 l 0,13.78907 c 0,2.21354 -0.1823,3.71093 -0.54687,4.49218 -0.33856,0.78125 -0.8073,1.34115 -1.40626,1.67969 -0.59895,0.33854 -1.77083,0.50781 -3.51562,0.50781 l 0,1.40625 17.38281,0 0,-1.40625 c -1.69271,0 -2.86458,-0.18229 -3.51562,-0.54687 -0.625,-0.36459 -1.10678,-0.91146 -1.44531,-1.64063 -0.3125,-0.75521 -0.46876,-2.2526 -0.46876,-4.49218 l 0,-28.75 -1.71874,0 z" id="path3343" inkscape:connector-curvature="0"/>
  </g>
</svg>